# xmcd
#
# Track frame offsets:
#	182
#	26135
#	46635
#	81330
#	94747
#	106787
#	121272
#	137562
#	157172
#	175975
#	203637
#	224130
#
# Disc length: 3348 seconds
#
# Revision: 1
# Processed by: cddbd v1.4PL0 Copyright (c) Steve Scherf et al.
# Submitted via: EasyCDDAExtractor 5.0.7
#
DISCID=a40d120c
DTITLE=Wes McGhee - Border Guitars
DYEAR=1996
DGENRE=
TTITLE0=1,000 Ways To Be Bad
TTITLE1=Everything I Need In You
TTITLE2=Monterrey
TTITLE3=El Sol Que Tu Eres
TTITLE4=El Noy De La Mare
TTITLE5=Wherever Your Heart Is
TTITLE6=I Wouldn't Think Twice
TTITLE7=She's Only A Town
TTITLE8=Bury Me (Under The Honky Tonk Floor)
TTITLE9=Border Guitars
TTITLE10=This Guitar Is For Sale
TTITLE11=New Blue Stone (Part 2)
EXTD=
EXTT0=
EXTT1=
EXTT2=
EXTT3=
EXTT4=
EXTT5=
EXTT6=
EXTT7=
EXTT8=
EXTT9=
EXTT10=
EXTT11=
PLAYORDER=
